<?xml version="1.0" encoding="UTF-8"?>
<svg id="Layer_1" xmlns="http://www.w3.org/2000/svg" viewBox="0 0 413.72 136.38" height="40" fill="white">
  <path d="M267.35,136.75h-22.11l-38.68-114.51c-.02-.09-.15-.09-.17,0l-38.68,114.51h-22.12L196.93.23h20.99l49.43,136.52Z"/>
  <g id="SvgjsG1012">
    <g>
      <path d="M62.22,93.43c.07-.02.15-.05.21-.08l.64-.26c-.28.12-.57.23-.86.34Z"/>
      <!-- <path d="M68.31.73C46.78.73,26.28,11.13,13.47,28.55c-1.88,2.38-3.53,4.96-4.89,7.65C3.13,46.15.25,57.42.25,68.79c0,37.53,30.53,68.07,68.06,68.07s68.07-30.54,68.07-68.07S105.84.73,68.31.73ZM22.81,35.57c6.32-7.87,15.67-12.39,25.63-12.39,13.13,0,24.51,7.73,29.84,19.04-4.87-3.81-10.95-5.99-17.38-5.99-15.67,0-28.42,12.86-28.42,28.68,0,10.88,6.04,20.37,14.92,25.22-17.74-.56-32.01-15.36-32.01-33.46,0-5.25,1.18-10.29,3.51-14.99,1.16-2.09,2.47-4.15,3.91-6.12ZM60.89,81.89c-9.23,0-16.74-7.62-16.74-16.98s7.51-16.99,16.74-16.99,16.74,7.62,16.74,16.99-7.51,16.98-16.74,16.98ZM63.07,93.09l-.64.26c-.07.03-.15.06-.21.08.28-.11.57-.22.86-.34ZM68.31,125.18c-25.12,0-46.33-16.18-53.65-38.93,8.35,9.69,20.6,15.58,33.77,15.58,24.67,0,44.74-20.26,44.74-45.16,0-20.88-14.11-38.49-33.21-43.65,2.75-.41,5.53-.61,8.35-.61,31.09,0,56.38,25.29,56.38,56.38s-25.29,56.38-56.38,56.38Z"/> -->
    </g>
  </g>
  <rect x="274.71" y="1.52" width="18.5" height="135.23"/>
  <polygon points="413.59 1.52 413.59 17.93 367.23 17.93 367.23 136.75 348.72 136.75 348.72 17.93 302.36 17.93 302.36 1.52 413.59 1.52"/>
</svg>